# xmcd
#
# Track frame offsets:
#	183
#	13705
#	29868
#	43045
#	58813
#	71763
#	85383
#	99150
#	111085
#	125363
#	138475
#	152398
#	165425
#	179015
#	192720
#	205988
#
# Disc length: 2956
#
# Revision: 1
# Processed by: cddbd v1.5.1PL0 Copyright (c) Steve Scherf et al.
# Submitted via: EasyCDDAExtractor 4.5.0.2
# Normalized: r0:TDELIM( - )
#
DISCID=e70b8a10
DTITLE=x - Die Superhits der Voklsmusik
DYEAR=1992
DGENRE=Volksmusik und Schlager
TTITLE0=Patrick Linder - Der Mensch in Dir
TTITLE1=Kastelruther Spatzen - Eine weisse Rose
TTITLE2=Christina Ebner - Kleine Wunder sieht man nicht
TTITLE3=Nockalm Quintett - Wenn Du mein Brieferl liest
TTITLE4=Zwilling - A Herz braucht a Heimat
TTITLE5=Zillertaler Schürzenjäger - Treue Heimat
TTITLE6=Mühlehof Musikanten - Diese Welt ist uns're Welt
TTITLE7=White Stars - Du bist a echter Goldschatz für mi
TTITLE8=Bianca - Engel von San Capitello
TTITLE9=Die Zillertaler - Du bist so a lieber Kerl
TTITLE10=Edith Prock - Eine  Welt voll Liebe
TTITLE11=Dolomiten Sextett Lienz - Hessenmarsch
TTITLE12=Bachler Buam - Uns ziagt koana die Lederhos'n aus
TTITLE13=Alpenklang Quintett - Dein Kuscheltier
TTITLE14=Neue Allgäuer Dorfmusikanten - Freu Dich der schönen Stunden
TTITLE15=Das Goldene Edelweiss - Die herzen auf die Musi kommt
EXTD=CD von I.B.\n
EXTT0=
EXTT1=
EXTT2=
EXTT3=
EXTT4=
EXTT5=
EXTT6=
EXTT7=
EXTT8=
EXTT9=
EXTT10=
EXTT11=
EXTT12=
EXTT13=
EXTT14=
EXTT15=
PLAYORDER=
